<svg version="1.1" id="Layer_1" xmlns="http://www.w3.org/2000/svg" xmlns:xlink="http://www.w3.org/1999/xlink" x="0px" y="0px"
	 width="100%" viewBox="0 0 225 225" enable-background="new 0 0 225 225" xml:space="preserve">
<path fill="#FFFEFC" opacity="1.000000" stroke="none" 
	d="
M1.000000,84.000000 
	C1.000000,56.000004 1.000000,28.500010 1.000000,1.000011 
	C75.999977,1.000007 150.999954,1.000007 225.999954,1.000004 
	C225.999969,75.999969 225.999969,150.999939 225.999985,225.999939 
	C151.000046,225.999954 76.000092,225.999954 1.000068,225.999969 
	C1.000000,178.833328 1.000000,131.666672 1.000000,84.000000 
M167.912491,16.379622 
	C167.263077,16.234478 166.613678,16.089336 165.957977,16.003099 
	C165.957977,16.003099 166.015869,16.014633 165.742416,15.338559 
	C164.470871,14.572395 163.290329,13.461819 161.912521,13.097723 
	C154.677780,11.185861 147.393143,9.462836 139.669907,7.562010 
	C138.682129,8.809922 137.519531,11.195951 135.611404,12.416230 
	C133.903992,13.508149 129.611542,13.962158 129.475266,13.590863 
	C127.713470,8.790449 122.631554,9.461118 119.634773,7.086270 
	C115.281189,3.636196 111.972603,5.920741 106.905563,7.574499 
	C111.503181,9.283457 114.715576,10.477522 117.927979,11.671587 
	C117.752502,12.143689 117.577034,12.615792 117.401566,13.087895 
	C111.591667,13.087895 105.781776,13.087895 99.971878,13.087895 
	C99.962921,13.587247 99.953957,14.086598 99.945000,14.585950 
	C101.842331,14.854016 103.739670,15.122082 106.045097,15.447806 
	C95.673340,21.236780 85.143242,21.732296 74.153793,20.022432 
	C74.941338,19.147076 75.787361,18.206711 76.633385,17.266346 
	C76.420555,16.990969 76.207726,16.715590 75.994896,16.440212 
	C71.964180,19.567080 67.933464,22.693947 63.232555,26.046030 
	C59.868301,27.738403 56.404560,29.265596 53.187836,31.202930 
	C51.866711,31.998602 51.082809,33.682346 50.036617,34.947308 
	C49.966698,35.031849 49.744682,34.990601 49.593410,35.007862 
	C49.679176,35.128090 49.764942,35.248318 50.111588,35.734257 
	C55.212242,32.933876 60.356552,30.109531 66.222099,27.104067 
	C69.974564,25.967136 73.727020,24.830206 77.479485,23.693274 
	C77.186714,25.517035 76.505463,26.721729 75.604408,26.918167 
	C70.910034,27.941578 67.896545,31.542324 64.095589,33.817566 
	C56.700157,38.244469 52.272583,45.071812 46.700592,51.022377 
	C45.270306,52.549835 42.548405,52.839520 40.463493,53.793194 
	C39.256355,54.345352 37.782207,54.821983 37.049156,55.798653 
	C35.424953,57.962639 34.652195,60.946331 32.704659,62.649384 
	C28.650803,66.194336 26.408842,70.399818 26.009876,76.950203 
	C23.815472,75.343918 22.386301,74.297775 20.327049,72.790428 
	C19.705221,74.812347 18.173155,77.076263 18.771601,78.287880 
	C22.741119,86.324654 16.388161,93.414658 17.082403,101.156982 
	C17.587437,106.789192 16.650389,112.535667 16.816837,118.217712 
	C16.968546,123.396584 17.740246,128.557297 18.261343,133.961060 
	C18.963394,133.761230 20.412249,133.348846 21.559967,133.022171 
	C24.451254,140.231110 27.241932,147.189209 29.868349,153.737747 
	C29.274570,155.050522 27.770569,156.760223 28.124033,157.887512 
	C29.338205,161.759842 30.819532,165.656830 32.891853,169.131165 
	C38.886093,179.180832 46.559978,187.836349 55.590347,195.322449 
	C57.529446,196.929962 58.884430,199.242096 60.954155,201.775040 
	C61.293015,201.684540 62.651810,201.321609 64.061859,201.663879 
	C64.114830,201.893524 64.167809,202.123184 64.185028,202.970535 
	C63.753784,203.883087 63.322540,204.795639 62.376114,205.950470 
	C62.287029,206.296005 62.197948,206.641556 61.990192,207.454193 
	C61.990192,207.454193 61.976315,207.935928 61.236317,208.097458 
	C56.259224,205.310913 51.019161,202.894592 46.395527,199.610443 
	C43.199219,197.340118 40.854195,193.871307 37.823948,190.323563 
	C34.818218,186.475403 33.007935,181.387619 26.499910,179.513184 
	C30.518156,184.194595 33.797134,188.014725 37.561340,192.396179 
	C38.039665,193.470093 38.641674,194.509079 38.958031,195.628754 
	C39.221416,196.560959 38.756237,198.062668 39.285519,198.501022 
	C46.133984,204.172928 52.785370,210.230087 61.948559,212.050201 
	C61.948559,212.050201 61.855236,212.088364 62.105904,212.474396 
	C62.347221,212.700974 62.631535,212.789642 63.748745,213.105682 
	C67.500648,213.393326 71.252548,213.680969 75.635544,214.219254 
	C76.406059,214.519852 77.176575,214.820465 78.154976,215.820465 
	C87.715004,221.008041 98.166351,220.771164 108.569832,220.799866 
	C109.648026,220.802841 110.736763,220.512115 111.803162,220.591614 
	C114.821785,220.816711 117.831352,221.163376 120.844490,221.462128 
	C121.106033,220.679153 121.367584,219.896179 121.629135,219.113205 
	C118.840279,217.380051 116.208641,215.281281 113.226044,213.998657 
	C108.648201,212.030029 103.721527,210.873138 99.141838,208.908127 
	C94.393562,206.870758 89.799568,204.427414 85.296318,201.881760 
	C82.302841,200.189545 79.587097,198.006042 76.747040,196.042450 
	C84.215805,195.783051 85.481956,196.225876 90.767105,199.067581 
	C97.031158,202.435593 103.376511,205.652420 109.887878,209.039444 
	C109.599991,206.548981 109.394035,204.767258 109.192589,203.024536 
	C99.451332,200.163071 99.451332,200.163071 98.454506,197.817001 
	C101.794868,198.563766 104.742699,199.467285 107.756691,199.850601 
	C116.679512,200.985352 125.614166,202.518265 134.571762,202.730286 
	C141.520630,202.894745 148.827713,205.720810 155.493469,201.798141 
	C157.929596,200.364517 159.945068,199.126785 162.926971,199.802719 
	C163.750580,199.989426 165.424408,198.615936 165.936646,197.577682 
	C167.512650,194.383133 168.157394,190.602737 170.185699,187.785599 
	C173.763672,182.816086 177.547302,177.700119 182.273270,173.937057 
	C186.727417,170.390427 190.988708,164.728897 198.268967,167.594635 
	C199.725067,164.528839 200.851669,161.612762 202.435410,158.970657 
	C204.122757,156.155746 206.242508,153.600006 208.503723,150.474640 
	C208.953552,152.572922 209.319504,154.279938 209.733871,156.212875 
	C215.507446,151.118759 218.408401,143.206818 220.983841,123.668327 
	C216.788742,131.241577 212.593628,138.814835 208.398514,146.388092 
	C207.989899,146.146576 207.581268,145.905075 207.172653,145.663559 
	C207.654419,139.760727 205.930328,133.678635 210.020538,128.058960 
	C211.063614,126.625824 209.388123,123.214027 208.785385,119.676582 
	C206.280609,127.390518 204.267548,133.590103 202.254501,139.789673 
	C202.653687,139.664352 203.052887,139.539032 203.452087,139.413727 
	C203.936172,141.090256 204.994263,142.837662 204.797623,144.430130 
	C204.186737,149.377228 197.314346,154.646225 191.902145,154.540314 
	C192.347336,153.403305 192.797760,152.355270 193.172150,151.280762 
	C196.662170,141.264008 200.181900,131.257187 203.583160,121.210312 
	C204.248566,119.244789 205.225800,116.862350 201.842422,115.193626 
	C202.213821,112.795090 202.585236,110.396561 203.130310,107.685104 
	C203.130310,107.685104 203.103470,107.328247 203.831757,107.050949 
	C204.525604,107.412468 205.628021,107.616364 205.839294,108.164040 
	C206.574203,110.069016 207.000198,112.093163 207.543655,114.071991 
	C208.214523,113.968758 208.885391,113.865524 209.556259,113.762291 
	C209.556259,110.903954 209.870224,107.997726 209.444168,105.204376 
	C209.167236,103.388687 207.812134,101.737457 207.117996,99.357933 
	C207.086288,98.908600 207.054596,98.459259 207.359100,97.337540 
	C207.588974,95.567245 207.818848,93.796951 207.994385,92.010864 
	C207.994385,92.010864 208.033386,92.052101 208.572205,91.652023 
	C208.608795,87.966377 211.782181,84.156746 208.189789,79.924561 
	C208.086594,77.618446 207.983398,75.312332 207.590958,72.263153 
	C201.963654,70.616112 204.757263,75.016853 203.900665,77.710953 
	C203.928894,78.471931 203.957138,79.232903 203.630432,80.622406 
	C202.736252,81.124039 201.842072,81.625671 200.974884,82.053513 
	C200.974884,82.053513 200.897186,82.041794 200.705856,81.228813 
	C200.354446,77.012177 200.003021,72.795540 199.647079,68.524551 
	C198.764023,69.040733 197.869476,69.563629 196.768463,69.439056 
	C194.909637,69.141289 193.050797,68.843513 191.136307,68.208473 
	C191.035919,67.986549 190.869598,67.838905 190.518311,67.037628 
	C188.710693,64.520325 186.612289,62.160221 185.150452,59.455997 
	C180.917648,51.625847 176.915970,43.669941 172.883759,35.732834 
	C172.054947,34.101379 171.487259,32.337280 170.799210,30.634321 
	C171.214355,30.253359 171.629501,29.872396 172.044662,29.491434 
	C176.387619,32.192360 180.730576,34.893288 185.134644,37.632225 
	C186.993103,37.029163 189.324173,36.272736 192.361389,35.287167 
	C190.638321,34.386299 189.316284,33.632988 187.943329,32.988140 
	C182.294144,30.334835 176.629501,27.714493 170.793488,24.437796 
	C173.020691,23.663219 175.247910,22.888643 178.369247,21.803110 
	C175.251495,20.341557 172.732635,19.160757 169.883392,17.354113 
	C169.238541,17.224134 168.593689,17.094156 167.971451,17.042780 
	C167.971451,17.042780 168.052917,17.035650 167.912491,16.379622 
M172.795441,200.035278 
	C176.690796,196.923096 180.169220,192.860031 184.580994,190.925629 
	C190.914368,188.148666 189.903107,182.783127 191.755493,177.604935 
	C193.144333,178.282013 194.533188,178.959091 195.924149,179.631638 
	C199.923660,172.689743 199.923660,172.689743 194.588745,169.937500 
	C192.464096,172.953079 190.334488,175.975677 187.666290,179.428070 
	C183.553192,183.742523 180.335068,189.076004 175.176102,192.199600 
	C174.811157,191.837708 174.446228,191.475815 174.081284,191.113922 
	C173.206848,193.882294 172.332413,196.650681 171.061966,199.725327 
	C170.926651,200.035370 170.791336,200.345398 170.656006,200.655441 
	C171.137939,200.476837 171.619858,200.298218 172.795441,200.035278 
M17.153013,164.443314 
	C17.964876,165.550171 18.776737,166.657028 19.588600,167.763885 
	C19.945946,167.573578 20.303293,167.383270 20.660639,167.192978 
	C19.674774,165.031433 18.661152,162.882050 17.709036,160.705750 
	C15.927639,156.633972 14.045703,152.598083 12.475394,148.445267 
	C11.613434,146.165726 11.641459,143.530869 10.679342,141.311478 
	C7.605352,134.220535 7.409518,126.849731 7.641857,119.306107 
	C7.788999,114.528641 7.206960,109.728729 6.951954,104.938881 
	C6.340180,104.974625 5.728405,105.010376 5.116631,105.046120 
	C4.787049,110.432762 3.932315,115.850647 4.250587,121.198738 
	C4.731722,129.283478 4.565304,137.666824 9.914146,144.675400 
	C10.401575,145.314072 10.151709,146.611542 10.055123,147.584320 
	C9.398889,154.193588 11.543481,159.648727 17.153013,164.443314 
M205.047516,168.280579 
	C206.348389,164.601364 207.649261,160.922134 208.950150,157.242920 
	C208.527191,157.000336 208.104233,156.757751 207.681274,156.515182 
	C205.193008,160.878998 202.704727,165.242828 199.576385,170.729187 
	C202.057220,169.875748 203.364380,169.426071 205.047516,168.280579 
z"/>
<path fill="#EB7C0F" opacity="1.000000" stroke="none" 
	d="
M207.022888,98.009926 
	C207.054596,98.459259 207.086288,98.908600 206.769485,99.932755 
	C205.315140,102.781128 204.209305,105.054688 203.103470,107.328247 
	C203.103470,107.328247 203.130310,107.685104 202.684769,107.915840 
	C201.221405,110.735367 197.935364,113.232811 201.922043,116.023132 
	C205.225800,116.862350 204.248566,119.244789 203.583160,121.210312 
	C200.181900,131.257187 196.662170,141.264008 193.172150,151.280762 
	C192.797760,152.355270 192.347336,153.403305 191.902145,154.540314 
	C197.314346,154.646225 204.186737,149.377228 204.797623,144.430130 
	C204.994263,142.837662 203.936172,141.090256 203.452087,139.413727 
	C203.052887,139.539032 202.653687,139.664352 202.254501,139.789673 
	C204.267548,133.590103 206.280609,127.390518 208.785385,119.676582 
	C209.388123,123.214027 211.063614,126.625824 210.020538,128.058960 
	C205.930328,133.678635 207.654419,139.760727 207.172653,145.663559 
	C207.581268,145.905075 207.989899,146.146576 208.398514,146.388092 
	C212.593628,138.814835 216.788742,131.241577 220.983841,123.668327 
	C218.408401,143.206818 215.507446,151.118759 209.733871,156.212875 
	C209.319504,154.279938 208.953552,152.572922 208.503723,150.474640 
	C206.242508,153.600006 204.122757,156.155746 202.435410,158.970657 
	C200.851669,161.612762 199.725067,164.528839 198.268967,167.594635 
	C190.988708,164.728897 186.727417,170.390427 182.273270,173.937057 
	C177.547302,177.700119 173.763672,182.816086 170.185699,187.785599 
	C168.157394,190.602737 167.512650,194.383133 165.936646,197.577682 
	C165.424408,198.615936 163.750580,199.989426 162.926971,199.802719 
	C159.945068,199.126785 157.929596,200.364517 155.493469,201.798141 
	C148.827713,205.720810 141.520630,202.894745 134.571762,202.730286 
	C125.614166,202.518265 116.679512,200.985352 107.756691,199.850601 
	C104.742699,199.467285 101.794868,198.563766 98.454506,197.817001 
	C99.451332,200.163071 99.451332,200.163071 109.192589,203.024536 
	C109.394035,204.767258 109.599991,206.548981 109.887878,209.039444 
	C103.376511,205.652420 97.031158,202.435593 90.767105,199.067581 
	C85.481956,196.225876 84.215805,195.783051 76.747040,196.042450 
	C79.587097,198.006042 82.302841,200.189545 85.296318,201.881760 
	C89.799568,204.427414 94.393562,206.870758 99.141838,208.908127 
	C103.721527,210.873138 108.648201,212.030029 113.226044,213.998657 
	C116.208641,215.281281 118.840279,217.380051 121.629135,219.113205 
	C121.367584,219.896179 121.106033,220.679153 120.844490,221.462128 
	C117.831352,221.163376 114.821785,220.816711 111.803162,220.591614 
	C110.736763,220.512115 109.648026,220.802841 108.569832,220.799866 
	C98.166351,220.771164 87.715004,221.008041 78.060463,215.085999 
	C76.167091,209.849228 72.097801,208.903198 67.950256,207.854767 
	C67.807465,207.668747 67.720284,207.620590 67.633102,207.572433 
	C67.752861,207.716949 67.872620,207.861465 68.046745,208.353333 
	C70.402229,210.456650 72.703339,212.212631 75.004456,213.968597 
	C71.252548,213.680969 67.500648,213.393326 63.217705,212.745026 
	C62.447384,212.179428 62.170242,212.080750 61.855236,212.088364 
	C61.855236,212.088364 61.948559,212.050201 61.954628,211.675598 
	C61.965904,210.179306 61.971111,209.057617 61.976315,207.935928 
	C61.976315,207.935928 61.990192,207.454193 62.258583,207.062561 
	C62.648415,206.350006 62.769855,206.029099 62.891296,205.708176 
	C63.322540,204.795639 63.753784,203.883087 64.420547,202.488403 
	C64.440918,201.657074 64.225761,201.307877 64.010605,200.958679 
	C62.651810,201.321609 61.293015,201.684540 60.954155,201.775040 
	C58.884430,199.242096 57.529446,196.929962 55.590347,195.322449 
	C46.559978,187.836349 38.886093,179.180832 32.891853,169.131165 
	C30.819532,165.656830 29.338205,161.759842 28.124033,157.887512 
	C27.770569,156.760223 29.274570,155.050522 29.868349,153.737747 
	C27.241932,147.189209 24.451254,140.231110 21.559967,133.022171 
	C20.412249,133.348846 18.963394,133.761230 18.261343,133.961060 
	C17.740246,128.557297 16.968546,123.396584 16.816837,118.217712 
	C16.650389,112.535667 17.587437,106.789192 17.082403,101.156982 
	C16.388161,93.414658 22.741119,86.324654 18.771601,78.287880 
	C18.173155,77.076263 19.705221,74.812347 20.327049,72.790428 
	C22.386301,74.297775 23.815472,75.343918 26.009876,76.950203 
	C26.408842,70.399818 28.650803,66.194336 32.704659,62.649384 
	C34.652195,60.946331 35.424953,57.962639 37.049156,55.798653 
	C37.782207,54.821983 39.256355,54.345352 40.463493,53.793194 
	C42.548405,52.839520 45.270306,52.549835 46.700592,51.022377 
	C52.272583,45.071812 56.700157,38.244469 64.095589,33.817566 
	C67.896545,31.542324 70.910034,27.941578 75.604408,26.918167 
	C76.505463,26.721729 77.186714,25.517035 77.479485,23.693274 
	C73.727020,24.830206 69.974564,25.967136 65.531540,27.023727 
	C64.528244,26.569197 64.215492,26.195005 63.902748,25.820814 
	C67.933464,22.693947 71.964180,19.567080 75.994896,16.440212 
	C76.207726,16.715590 76.420555,16.990969 76.633385,17.266346 
	C75.787361,18.206711 74.941338,19.147076 74.153793,20.022432 
	C85.143242,21.732296 95.673340,21.236780 106.045097,15.447806 
	C103.739670,15.122082 101.842331,14.854016 99.945000,14.585950 
	C99.953957,14.086598 99.962921,13.587247 99.971878,13.087895 
	C105.781776,13.087895 111.591667,13.087895 117.401566,13.087895 
	C117.577034,12.615792 117.752502,12.143689 117.927979,11.671587 
	C114.715576,10.477522 111.503181,9.283457 106.905563,7.574499 
	C111.972603,5.920741 115.281189,3.636196 119.634773,7.086270 
	C122.631554,9.461118 127.713470,8.790449 129.475266,13.590863 
	C129.611542,13.962158 133.903992,13.508149 135.611404,12.416230 
	C137.519531,11.195951 138.682129,8.809922 139.669907,7.562010 
	C147.393143,9.462836 154.677780,11.185861 161.912521,13.097723 
	C163.290329,13.461819 164.470871,14.572395 165.496124,15.846025 
	C162.513779,15.960264 159.777695,15.567038 157.041626,15.173811 
	C156.888153,15.820404 156.734695,16.466997 156.581223,17.113590 
	C158.226944,18.105696 159.855774,19.127193 161.522018,20.083542 
	C164.613464,21.857880 169.164017,20.872862 170.970535,25.082027 
	C176.629501,27.714493 182.294144,30.334835 187.943329,32.988140 
	C189.316284,33.632988 190.638321,34.386299 192.361389,35.287167 
	C189.324173,36.272736 186.993103,37.029163 185.134644,37.632225 
	C180.730576,34.893288 176.387619,32.192360 172.044662,29.491434 
	C171.629501,29.872396 171.214355,30.253359 170.799210,30.634321 
	C171.487259,32.337280 172.054947,34.101379 172.883759,35.732834 
	C176.915970,43.669941 180.917648,51.625847 185.150452,59.455997 
	C186.612289,62.160221 188.710693,64.520325 190.134583,67.507103 
	C189.167160,69.523979 188.074661,71.077682 188.093719,72.617630 
	C188.154709,77.546547 189.247879,82.535683 188.738281,87.374748 
	C188.354950,91.014740 189.713760,91.842560 191.139740,92.252396 
	C193.231232,90.106789 194.703339,88.711159 196.023102,87.183884 
	C196.521240,86.607399 196.908539,85.734329 196.933044,84.982979 
	C197.060867,81.061714 197.635162,77.140846 193.828064,74.105148 
	C192.387589,72.956543 192.038528,70.439186 191.191986,68.545731 
	C193.050797,68.843513 194.909637,69.141289 196.930267,70.138641 
	C197.728851,73.282097 198.273102,75.755440 199.038467,78.158356 
	C199.469849,79.512779 200.265579,80.751152 200.897186,82.041794 
	C200.897186,82.041794 200.974884,82.053513 201.034241,82.414200 
	C201.974197,82.939987 202.854767,83.105095 203.735352,83.270195 
	C203.818680,82.178093 203.902023,81.085983 203.985367,79.993881 
	C203.957138,79.232903 203.928894,78.471931 204.372681,77.282150 
	C205.856537,75.570976 206.868362,74.288597 207.880188,73.006210 
	C207.983398,75.312332 208.086594,77.618446 208.124802,80.755829 
	C208.051010,85.075439 208.042191,88.563766 208.033386,92.052101 
	C208.033386,92.052101 207.994385,92.010864 207.653168,92.079498 
	C207.215607,94.102066 207.119247,96.055992 207.022888,98.009926 
M172.691910,48.105480 
	C174.315414,50.412800 175.938919,52.720119 177.562408,55.027439 
	C177.989471,54.793972 178.416534,54.560505 178.843597,54.327038 
	C178.843597,53.205570 179.229248,51.891129 178.780457,50.994228 
	C176.047287,45.532021 173.378815,40.007999 170.181076,34.817360 
	C167.788971,30.934425 164.232162,28.107897 159.287109,28.065811 
	C158.283859,28.057274 156.757629,28.499619 156.406799,29.201262 
	C156.020477,29.973909 156.340378,31.707085 156.999374,32.287498 
	C159.551819,34.535610 162.210526,36.742737 165.115219,38.490540 
	C168.529663,40.545059 172.570755,41.836174 171.456436,46.616394 
	C169.737152,44.997608 168.017868,43.378826 166.298584,41.760044 
	C165.887466,42.172562 165.476349,42.585083 165.065247,42.997601 
	C166.062637,45.022434 166.926056,47.131428 168.120270,49.032627 
	C168.631729,49.846867 169.831726,50.228600 170.718872,50.806847 
	C171.145203,49.868221 171.571548,48.929592 172.691910,48.105480 
M150.388596,55.820335 
	C125.559547,40.970974 100.224548,40.188717 75.906425,55.812260 
	C51.431633,71.536461 41.297264,94.919487 44.899776,123.962074 
	C46.302979,135.274368 51.098110,145.256592 56.507442,154.852295 
	C50.948204,155.235886 53.129333,158.436890 55.004875,160.270020 
	C59.574986,164.736786 64.847420,168.491608 69.354454,173.014069 
	C72.670128,176.341064 75.573128,176.951157 79.848106,174.053055 
	C91.402748,180.247696 103.698303,182.669617 116.812927,182.239075 
	C154.527481,181.000931 185.562057,145.245346 181.535614,107.751671 
	C179.438049,88.219307 170.823151,72.420952 156.395599,59.222610 
	C159.674423,56.870724 161.082489,59.783031 162.732330,61.599766 
	C164.224579,63.242973 165.450348,65.128189 166.793625,66.906685 
	C167.221817,66.584488 167.650024,66.262291 168.078217,65.940094 
	C166.166565,61.438118 163.935532,57.086250 159.686005,54.154301 
	C157.682129,52.771709 155.097946,52.162495 153.257401,50.626762 
	C150.533508,48.353962 148.572449,48.810574 147.127197,50.077152 
	C148.740067,52.489613 149.905136,54.232262 150.388596,55.820335 
M96.897308,188.963058 
	C88.525986,186.773880 88.525986,186.773880 85.824242,189.028549 
	C95.998024,195.545654 119.522942,196.084518 125.218086,188.993713 
	C115.614372,188.993713 106.706352,188.993713 96.897308,188.963058 
M177.599518,78.870338 
	C180.082214,80.731514 182.564911,82.592690 185.032516,84.442566 
	C185.032516,80.939842 185.032516,77.067856 185.032516,73.215912 
	C184.022720,72.203613 182.194183,69.497566 181.453598,69.768234 
	C176.209854,71.684753 177.744171,67.094658 176.484467,65.153664 
	C175.663116,63.888107 174.395844,62.911938 173.328339,61.806133 
	C172.918427,62.049221 172.508499,62.292313 172.098587,62.535400 
	C172.202850,63.945927 171.995163,65.472801 172.469711,66.745239 
	C173.913162,70.615547 175.620041,74.387604 177.599518,78.870338 
M140.527954,29.068527 
	C137.439621,29.774967 134.351273,30.481407 130.736008,31.308378 
	C139.800919,35.848808 147.999130,39.955132 156.197342,44.061451 
	C156.642151,43.323189 157.086960,42.584927 157.531754,41.846664 
	C153.765594,39.026520 149.999435,36.206371 145.591721,32.905827 
	C146.106934,31.028473 145.216263,28.858997 140.527954,29.068527 
M127.379639,25.000013 
	C132.525894,24.132132 137.672165,23.264252 142.818420,22.396370 
	C142.926712,21.976780 143.034988,21.557190 143.143280,21.137600 
	C141.723541,20.448122 140.230515,19.049801 138.896362,19.187756 
	C131.863693,19.914968 124.855186,20.933670 117.877846,22.089911 
	C116.458649,22.325089 115.209206,23.584620 113.881508,24.371929 
	C114.071350,24.870995 114.261200,25.370060 114.451042,25.869125 
	C118.453644,25.579512 122.456245,25.289900 127.379639,25.000013 
M74.510330,46.938046 
	C79.704979,44.238880 85.654648,42.555546 88.436707,36.508106 
	C82.882454,38.564819 77.960739,41.565025 73.122025,44.693573 
	C72.937241,44.813049 73.553291,46.171131 74.510330,46.938046 
M49.043659,152.347641 
	C48.235744,150.527573 47.427826,148.707504 46.619911,146.887436 
	C46.127743,146.991531 45.635578,147.095627 45.143410,147.199722 
	C44.424133,148.566422 43.704857,149.933136 43.551830,150.223892 
	C46.917942,156.053101 49.737255,160.935394 52.556568,165.817673 
	C53.159313,165.511719 53.762058,165.205750 54.364799,164.899796 
	C52.633022,160.970673 50.901245,157.041534 49.043659,152.347641 
M170.218567,182.372147 
	C165.792679,185.842636 161.366791,189.313110 156.706314,192.967545 
	C160.312057,194.893311 166.246613,190.202667 170.218567,182.372147 
M20.002893,101.494423 
	C19.647446,104.490707 16.282797,107.551651 20.675993,111.026489 
	C21.858751,107.935173 23.124069,105.212753 23.854548,102.353683 
	C24.066790,101.522972 22.749069,100.301369 22.132694,99.258957 
	C21.441729,99.743599 20.750763,100.228241 20.002893,101.494423 
M38.417011,143.479202 
	C38.196449,140.001068 37.975883,136.522919 37.755322,133.044785 
	C33.378834,138.616470 33.655769,140.725296 38.417011,143.479202 
M200.994492,94.347557 
	C200.994492,92.031433 200.994492,89.715309 200.994492,87.399185 
	C200.392456,87.339653 199.790421,87.280113 199.188385,87.220573 
	C198.470078,90.603691 197.751785,93.986801 197.033478,97.369919 
	C197.487045,97.627892 197.940598,97.885864 198.394165,98.143837 
	C199.251297,97.146667 200.108444,96.149498 200.994492,94.347557 
M189.491211,151.825226 
	C190.649185,148.833893 191.807144,145.842575 192.965118,142.851257 
	C192.396576,142.618286 191.828049,142.385315 191.259521,142.152359 
	C189.918945,144.991684 188.522980,147.808228 187.330048,150.708298 
	C187.220047,150.975754 188.403610,151.775345 189.491211,151.825226 
M68.191696,199.827820 
	C67.472298,200.016449 66.157280,200.136490 66.126442,200.404373 
	C65.844948,202.849380 72.839859,206.685989 75.428978,205.543488 
	C73.247879,203.738205 71.081009,201.944687 68.191696,199.827820 
M24.939394,91.485779 
	C25.766758,92.724091 26.594120,93.962395 27.421484,95.200699 
	C27.785231,94.903763 28.148979,94.606827 28.512728,94.309891 
	C27.546732,91.102798 26.580736,87.895699 25.614740,84.688606 
	C25.113426,84.779221 24.612112,84.869827 24.110798,84.960442 
	C24.334759,86.878593 24.558722,88.796738 24.939394,91.485779 
M100.979881,30.750685 
	C103.895576,31.312136 106.262154,30.742420 108.129128,26.862085 
	C104.713699,27.569807 101.252869,25.435043 100.979881,30.750685 
M26.022465,127.735031 
	C26.644112,130.490005 27.265757,133.244995 27.887403,135.999969 
	C28.543552,135.842331 29.199699,135.684708 29.855846,135.527069 
	C28.932348,132.221420 28.008850,128.915771 27.085352,125.610115 
	C26.735542,126.060501 26.385731,126.510895 26.022465,127.735031 
M172.482773,179.590820 
	C172.482773,179.590820 172.416412,179.479248 172.482773,179.590820 
z"/>
<path fill="#E78119" opacity="1.000000" stroke="none" 
	d="
M16.903381,164.180191 
	C11.543481,159.648727 9.398889,154.193588 10.055123,147.584320 
	C10.151709,146.611542 10.401575,145.314072 9.914146,144.675400 
	C4.565304,137.666824 4.731722,129.283478 4.250587,121.198738 
	C3.932315,115.850647 4.787049,110.432762 5.116631,105.046120 
	C5.728405,105.010376 6.340180,104.974625 6.951954,104.938881 
	C7.206960,109.728729 7.788999,114.528641 7.641857,119.306107 
	C7.409518,126.849731 7.605352,134.220535 10.679342,141.311478 
	C11.641459,143.530869 11.613434,146.165726 12.475394,148.445267 
	C14.045703,152.598083 15.927639,156.633972 17.709036,160.705750 
	C18.661152,162.882050 19.674774,165.031433 20.660639,167.192978 
	C20.303293,167.383270 19.945946,167.573578 19.588600,167.763885 
	C18.776737,166.657028 17.964876,165.550171 16.903381,164.180191 
z"/>
<path fill="#E96910" opacity="1.000000" stroke="none" 
	d="
M191.164154,68.377106 
	C192.038528,70.439186 192.387589,72.956543 193.828064,74.105148 
	C197.635162,77.140846 197.060867,81.061714 196.933044,84.982979 
	C196.908539,85.734329 196.521240,86.607399 196.023102,87.183884 
	C194.703339,88.711159 193.231232,90.106789 191.139740,92.252396 
	C189.713760,91.842560 188.354950,91.014740 188.738281,87.374748 
	C189.247879,82.535683 188.154709,77.546547 188.093719,72.617630 
	C188.074661,71.077682 189.167160,69.523979 190.194092,67.871056 
	C190.869598,67.838905 191.035919,67.986549 191.164154,68.377106 
z"/>
<path fill="#E6701D" opacity="1.000000" stroke="none" 
	d="
M171.457962,199.419052 
	C172.332413,196.650681 173.206848,193.882294 174.081284,191.113922 
	C174.446228,191.475815 174.811157,191.837708 175.176102,192.199600 
	C180.335068,189.076004 183.553192,183.742523 188.235840,179.181305 
	C189.546631,178.625595 190.287842,178.316635 191.029053,178.007660 
	C189.903107,182.783127 190.914368,188.148666 184.580994,190.925629 
	C180.169220,192.860031 176.690796,196.923096 172.293259,199.897156 
	C171.791077,199.759033 171.457962,199.419052 171.457962,199.419052 
z"/>
<path fill="#E88016" opacity="1.000000" stroke="none" 
	d="
M61.606316,208.016693 
	C61.971111,209.057617 61.965904,210.179306 61.934319,211.721741 
	C52.785370,210.230087 46.133984,204.172928 39.285519,198.501022 
	C38.756237,198.062668 39.221416,196.560959 38.958031,195.628754 
	C38.641674,194.509079 38.039665,193.470093 37.441261,191.911316 
	C37.545067,191.188751 37.814259,191.025955 38.128769,190.938065 
	C40.854195,193.871307 43.199219,197.340118 46.395527,199.610443 
	C51.019161,202.894592 56.259224,205.310913 61.606316,208.016693 
z"/>
<path fill="#FBF2E5" opacity="1.000000" stroke="none" 
	d="
M170.882019,24.759911 
	C169.164017,20.872862 164.613464,21.857880 161.522018,20.083542 
	C159.855774,19.127193 158.226944,18.105696 156.581223,17.113590 
	C156.734695,16.466997 156.888153,15.820404 157.041626,15.173811 
	C159.777695,15.567038 162.513779,15.960264 165.632858,16.184063 
	C166.015869,16.014633 165.957977,16.003099 165.993927,16.319214 
	C166.704208,16.768768 167.378571,16.902210 168.052917,17.035652 
	C168.052917,17.035650 167.971451,17.042780 168.093872,17.270088 
	C168.882111,17.658249 169.547958,17.819103 170.213791,17.979958 
	C172.732635,19.160757 175.251495,20.341557 178.369247,21.803110 
	C175.247910,22.888643 173.020691,23.663219 170.882019,24.759911 
z"/>
<path fill="#E46F1D" opacity="1.000000" stroke="none" 
	d="
M191.392273,177.806305 
	C190.287842,178.316635 189.546631,178.625595 188.505157,178.966415 
	C190.334488,175.975677 192.464096,172.953079 194.588745,169.937500 
	C199.923660,172.689743 199.923660,172.689743 195.923096,179.633911 
	C194.533188,178.959091 193.144333,178.282013 191.392273,177.806305 
z"/>
<path fill="#E78626" opacity="1.000000" stroke="none" 
	d="
M63.567650,25.933422 
	C64.215492,26.195005 64.528244,26.569197 65.170929,27.114286 
	C60.356552,30.109531 55.212242,32.933876 50.111588,35.734257 
	C49.764942,35.248318 49.679176,35.128090 49.593410,35.007862 
	C49.744682,34.990601 49.966698,35.031849 50.036617,34.947308 
	C51.082809,33.682346 51.866711,31.998602 53.187836,31.202930 
	C56.404560,29.265596 59.868301,27.738403 63.567650,25.933422 
z"/>
<path fill="#E87F13" opacity="1.000000" stroke="none" 
	d="
M203.467621,107.189598 
	C204.209305,105.054688 205.315140,102.781128 206.680527,100.260056 
	C207.812134,101.737457 209.167236,103.388687 209.444168,105.204376 
	C209.870224,107.997726 209.556259,110.903954 209.556259,113.762291 
	C208.885391,113.865524 208.214523,113.968758 207.543655,114.071991 
	C207.000198,112.093163 206.574203,110.069016 205.839294,108.164040 
	C205.628021,107.616364 204.525604,107.412468 203.467621,107.189598 
z"/>
<path fill="#E56D1A" opacity="1.000000" stroke="none" 
	d="
M204.859528,168.628479 
	C203.364380,169.426071 202.057220,169.875748 199.576385,170.729187 
	C202.704727,165.242828 205.193008,160.878998 207.681274,156.515182 
	C208.104233,156.757751 208.527191,157.000336 208.950150,157.242920 
	C207.649261,160.922134 206.348389,164.601364 204.859528,168.628479 
z"/>
<path fill="#E78424" opacity="1.000000" stroke="none" 
	d="
M37.976357,190.630814 
	C37.814259,191.025955 37.545067,191.188751 37.198647,191.630661 
	C33.797134,188.014725 30.518156,184.194595 26.499910,179.513184 
	C33.007935,181.387619 34.818218,186.475403 37.976357,190.630814 
z"/>
<path fill="#E86C0E" opacity="1.000000" stroke="none" 
	d="
M68.005859,207.992645 
	C72.097801,208.903198 76.167091,209.849228 77.956528,214.736298 
	C77.176575,214.820465 76.406059,214.519852 75.320000,214.093933 
	C72.703339,212.212631 70.402229,210.456650 68.050537,208.350342 
	C67.999969,208.000000 68.005859,207.992645 68.005859,207.992645 
z"/>
<path fill="#E87F13" opacity="1.000000" stroke="none" 
	d="
M200.801514,81.635300 
	C200.265579,80.751152 199.469849,79.512779 199.038467,78.158356 
	C198.273102,75.755440 197.728851,73.282097 197.033508,70.462372 
	C197.869476,69.563629 198.764023,69.040733 199.647079,68.524551 
	C200.003021,72.795540 200.354446,77.012177 200.801514,81.635300 
z"/>
<path fill="#E87F13" opacity="1.000000" stroke="none" 
	d="
M208.302795,91.852066 
	C208.042191,88.563766 208.051010,85.075439 208.097916,81.101883 
	C211.782181,84.156746 208.608795,87.966377 208.302795,91.852066 
z"/>
<path fill="#E87F13" opacity="1.000000" stroke="none" 
	d="
M201.882233,115.608383 
	C197.935364,113.232811 201.221405,110.735367 202.597931,108.072296 
	C202.585236,110.396561 202.213821,112.795090 201.882233,115.608383 
z"/>
<path fill="#E87F13" opacity="1.000000" stroke="none" 
	d="
M207.735565,72.634682 
	C206.868362,74.288597 205.856537,75.570976 204.516113,76.927719 
	C204.757263,75.016853 201.963654,70.616112 207.735565,72.634682 
z"/>
<path fill="#E87F13" opacity="1.000000" stroke="none" 
	d="
M207.190994,97.673737 
	C207.119247,96.055992 207.215607,94.102066 207.680359,92.087395 
	C207.818848,93.796951 207.588974,95.567245 207.190994,97.673737 
z"/>
<path fill="#E87F13" opacity="1.000000" stroke="none" 
	d="
M203.807892,80.308144 
	C203.902023,81.085983 203.818680,82.178093 203.735352,83.270195 
	C202.854767,83.105095 201.974197,82.939987 201.020752,82.451096 
	C201.842072,81.625671 202.736252,81.124039 203.807892,80.308144 
z"/>
<path fill="#EB7C0F" opacity="1.000000" stroke="none" 
	d="
M170.048584,17.667034 
	C169.547958,17.819103 168.882111,17.658249 168.082550,17.230785 
	C168.593689,17.094156 169.238541,17.224134 170.048584,17.667034 
z"/>
<path fill="#E6701D" opacity="1.000000" stroke="none" 
	d="
M171.946442,199.939331 
	C171.619858,200.298218 171.137939,200.476837 170.656006,200.655441 
	C170.791336,200.345398 170.926651,200.035370 171.259964,199.572189 
	C171.457962,199.419052 171.791077,199.759033 171.946442,199.939331 
z"/>
<path fill="#EB7C0F" opacity="1.000000" stroke="none" 
	d="
M167.982697,16.707638 
	C167.378571,16.902210 166.704208,16.768768 165.997070,16.289761 
	C166.613678,16.089336 167.263077,16.234478 167.982697,16.707638 
z"/>
<path fill="#F8E8D4" opacity="1.000000" stroke="none" 
	d="
M64.036232,201.311279 
	C64.225761,201.307877 64.440918,201.657074 64.438431,202.179565 
	C64.167809,202.123184 64.114830,201.893524 64.036232,201.311279 
z"/>
<path fill="#E88016" opacity="1.000000" stroke="none" 
	d="
M62.633705,205.829315 
	C62.769855,206.029099 62.648415,206.350006 62.317921,206.829010 
	C62.197948,206.641556 62.287029,206.296005 62.633705,205.829315 
z"/>
<path fill="#E88016" opacity="1.000000" stroke="none" 
	d="
M61.980568,212.281372 
	C62.170242,212.080750 62.447384,212.179428 62.822746,212.562393 
	C62.631535,212.789642 62.347221,212.700974 61.980568,212.281372 
z"/>
<path fill="#0C090C" opacity="1.000000" stroke="none" 
	d="
M156.053558,59.753334 
	C170.823151,72.420952 179.438049,88.219307 181.535614,107.751671 
	C185.562057,145.245346 154.527481,181.000931 116.812927,182.239075 
	C103.698303,182.669617 91.402748,180.247696 79.296082,173.707245 
	C72.187675,167.868347 65.631294,162.375244 58.985909,156.601913 
	C58.343937,155.797607 57.790970,155.273544 57.258083,154.726532 
	C57.278164,154.703568 57.304207,154.648392 57.304207,154.648392 
	C51.098110,145.256592 46.302979,135.274368 44.899776,123.962074 
	C41.297264,94.919487 51.431633,71.536461 75.906425,55.812260 
	C100.224548,40.188717 125.559547,40.970974 150.899384,56.165020 
	C152.957962,57.590912 154.505768,58.672123 156.053558,59.753334 
M172.434067,90.682426 
	C171.980225,90.121895 171.526382,89.561363 170.660309,88.430664 
	C157.023636,60.385708 130.205750,46.402279 100.689056,51.946129 
	C65.345413,58.584400 42.995731,94.272301 52.055073,129.604752 
	C60.986992,164.440247 98.562508,184.916550 132.563522,173.297348 
	C154.173492,165.912567 167.632782,150.682648 174.703369,128.909302 
	C174.702469,128.234283 174.701584,127.559250 174.690659,126.151260 
	C174.833099,125.433746 174.975555,124.716232 175.791992,123.865944 
	C175.828384,122.565926 175.864777,121.265915 175.729889,119.057785 
	C175.778122,115.054565 175.826355,111.051338 176.436096,106.636497 
	C175.993378,105.424736 175.550659,104.212967 174.901199,102.360481 
	C174.908798,101.916481 174.916397,101.472488 175.485870,100.586044 
	C174.663651,98.390717 173.841431,96.195389 172.628906,93.471222 
	C172.409988,92.650887 172.191086,91.830559 172.434067,90.682426 
z"/>
<path fill="#E96910" opacity="1.000000" stroke="none" 
	d="
M172.002258,47.011654 
	C172.570755,41.836174 168.529663,40.545059 165.115219,38.490540 
	C162.210526,36.742737 159.551819,34.535610 156.999374,32.287498 
	C156.340378,31.707085 156.020477,29.973909 156.406799,29.201262 
	C156.757629,28.499619 158.283859,28.057274 159.287109,28.065811 
	C164.232162,28.107897 167.788971,30.934425 170.181076,34.817360 
	C173.378815,40.007999 176.047287,45.532021 178.780457,50.994228 
	C179.229248,51.891129 178.843597,53.205570 178.843597,54.327038 
	C178.416534,54.560505 177.989471,54.793972 177.562408,55.027439 
	C175.938919,52.720119 174.315414,50.412800 172.345947,47.803452 
	C172.000000,47.501419 172.002258,47.011654 172.002258,47.011654 
z"/>
<path fill="#E86A0F" opacity="1.000000" stroke="none" 
	d="
M97.347816,188.978394 
	C106.706352,188.993713 115.614372,188.993713 125.218086,188.993713 
	C119.522942,196.084518 95.998024,195.545654 85.824242,189.028549 
	C88.525986,186.773880 88.525986,186.773880 97.347816,188.978394 
z"/>
<path fill="#E16711" opacity="1.000000" stroke="none" 
	d="
M59.074909,156.882156 
	C65.631294,162.375244 72.187675,167.868347 78.947014,173.635773 
	C75.573128,176.951157 72.670128,176.341064 69.354454,173.014069 
	C64.847420,168.491608 59.574986,164.736786 55.004875,160.270020 
	C53.129333,158.436890 50.948204,155.235886 56.905823,154.750336 
	C57.304207,154.648392 57.278164,154.703568 57.196255,155.040009 
	C57.767868,155.878357 58.421391,156.380264 59.074909,156.882156 
z"/>
<path fill="#E8690F" opacity="1.000000" stroke="none" 
	d="
M177.411942,78.534126 
	C175.620041,74.387604 173.913162,70.615547 172.469711,66.745239 
	C171.995163,65.472801 172.202850,63.945927 172.098587,62.535400 
	C172.508499,62.292313 172.918427,62.049221 173.328339,61.806133 
	C174.395844,62.911938 175.663116,63.888107 176.484467,65.153664 
	C177.744171,67.094658 176.209854,71.684753 181.453598,69.768234 
	C182.194183,69.497566 184.022720,72.203613 185.032516,73.215912 
	C185.032516,77.067856 185.032516,80.939842 185.032516,84.442566 
	C182.564911,82.592690 180.082214,80.731514 177.411942,78.534126 
z"/>
<path fill="#E96A0F" opacity="1.000000" stroke="none" 
	d="
M140.932816,29.045237 
	C145.216263,28.858997 146.106934,31.028473 145.591721,32.905827 
	C149.999435,36.206371 153.765594,39.026520 157.531754,41.846664 
	C157.086960,42.584927 156.642151,43.323189 156.197342,44.061451 
	C147.999130,39.955132 139.800919,35.848808 130.736008,31.308378 
	C134.351273,30.481407 137.439621,29.774967 140.932816,29.045237 
z"/>
<path fill="#E96A0F" opacity="1.000000" stroke="none" 
	d="
M126.919243,25.000149 
	C122.456245,25.289900 118.453644,25.579512 114.451042,25.869125 
	C114.261200,25.370060 114.071350,24.870995 113.881508,24.371929 
	C115.209206,23.584620 116.458649,22.325089 117.877846,22.089911 
	C124.855186,20.933670 131.863693,19.914968 138.896362,19.187756 
	C140.230515,19.049801 141.723541,20.448122 143.143280,21.137600 
	C143.034988,21.557190 142.926712,21.976780 142.818420,22.396370 
	C137.672165,23.264252 132.525894,24.132132 126.919243,25.000149 
z"/>
<path fill="#E6690F" opacity="1.000000" stroke="none" 
	d="
M156.224579,59.487968 
	C154.505768,58.672123 152.957962,57.590912 151.240189,56.242310 
	C149.905136,54.232262 148.740067,52.489613 147.127197,50.077152 
	C148.572449,48.810574 150.533508,48.353962 153.257401,50.626762 
	C155.097946,52.162495 157.682129,52.771709 159.686005,54.154301 
	C163.935532,57.086250 166.166565,61.438118 168.078217,65.940094 
	C167.650024,66.262291 167.221817,66.584488 166.793625,66.906685 
	C165.450348,65.128189 164.224579,63.242973 162.732330,61.599766 
	C161.082489,59.783031 159.674423,56.870724 156.224579,59.487968 
z"/>
<path fill="#E86A0F" opacity="1.000000" stroke="none" 
	d="
M74.153252,46.945045 
	C73.553291,46.171131 72.937241,44.813049 73.122025,44.693573 
	C77.960739,41.565025 82.882454,38.564819 88.436707,36.508106 
	C85.654648,42.555546 79.704979,44.238880 74.153252,46.945045 
z"/>
<path fill="#E86910" opacity="1.000000" stroke="none" 
	d="
M49.106564,152.730026 
	C50.901245,157.041534 52.633022,160.970673 54.364799,164.899796 
	C53.762058,165.205750 53.159313,165.511719 52.556568,165.817673 
	C49.737255,160.935394 46.917942,156.053101 43.551830,150.223892 
	C43.704857,149.933136 44.424133,148.566422 45.143410,147.199722 
	C45.635578,147.095627 46.127743,146.991531 46.619911,146.887436 
	C47.427826,148.707504 48.235744,150.527573 49.106564,152.730026 
z"/>
<path fill="#E86A0E" opacity="1.000000" stroke="none" 
	d="
M170.437927,182.608124 
	C166.246613,190.202667 160.312057,194.893311 156.706314,192.967545 
	C161.366791,189.313110 165.792679,185.842636 170.437927,182.608124 
z"/>
<path fill="#E8690F" opacity="1.000000" stroke="none" 
	d="
M20.031345,101.103653 
	C20.750763,100.228241 21.441729,99.743599 22.132692,99.258957 
	C22.749069,100.301369 24.066790,101.522972 23.854548,102.353683 
	C23.124069,105.212753 21.858751,107.935173 20.675993,111.026489 
	C16.282797,107.551651 19.647446,104.490707 20.031345,101.103653 
z"/>
<path fill="#E86910" opacity="1.000000" stroke="none" 
	d="
M38.073135,143.637772 
	C33.655769,140.725296 33.378834,138.616470 37.755322,133.044785 
	C37.975883,136.522919 38.196449,140.001068 38.073135,143.637772 
z"/>
<path fill="#E8690F" opacity="1.000000" stroke="none" 
	d="
M171.729340,46.814026 
	C172.002258,47.011654 172.000000,47.501419 171.998932,47.746193 
	C171.571548,48.929592 171.145203,49.868221 170.718872,50.806847 
	C169.831726,50.228600 168.631729,49.846867 168.120270,49.032627 
	C166.926056,47.131428 166.062637,45.022434 165.065247,42.997601 
	C165.476349,42.585083 165.887466,42.172562 166.298584,41.760044 
	C168.017868,43.378826 169.737152,44.997608 171.729340,46.814026 
z"/>
<path fill="#E86A0F" opacity="1.000000" stroke="none" 
	d="
M200.980042,94.749939 
	C200.108444,96.149498 199.251297,97.146667 198.394165,98.143837 
	C197.940598,97.885864 197.487045,97.627892 197.033478,97.369919 
	C197.751785,93.986801 198.470078,90.603691 199.188385,87.220573 
	C199.790421,87.280113 200.392456,87.339653 200.994492,87.399185 
	C200.994492,89.715309 200.994492,92.031433 200.980042,94.749939 
z"/>
<path fill="#E86A0F" opacity="1.000000" stroke="none" 
	d="
M189.238861,152.076538 
	C188.403610,151.775345 187.220047,150.975754 187.330048,150.708298 
	C188.522980,147.808228 189.918945,144.991684 191.259521,142.152359 
	C191.828049,142.385315 192.396576,142.618286 192.965118,142.851257 
	C191.807144,145.842575 190.649185,148.833893 189.238861,152.076538 
z"/>
<path fill="#F8E8D4" opacity="1.000000" stroke="none" 
	d="
M68.552917,199.989502 
	C71.081009,201.944687 73.247879,203.738205 75.428978,205.543488 
	C72.839859,206.685989 65.844948,202.849380 66.126442,200.404373 
	C66.157280,200.136490 67.472298,200.016449 68.552917,199.989502 
z"/>
<path fill="#E86B0E" opacity="1.000000" stroke="none" 
	d="
M24.861038,91.100327 
	C24.558722,88.796738 24.334759,86.878593 24.110798,84.960442 
	C24.612112,84.869827 25.113426,84.779221 25.614740,84.688606 
	C26.580736,87.895699 27.546732,91.102798 28.512728,94.309891 
	C28.148979,94.606827 27.785231,94.903763 27.421484,95.200699 
	C26.594120,93.962395 25.766758,92.724091 24.861038,91.100327 
z"/>
<path fill="#E86A0F" opacity="1.000000" stroke="none" 
	d="
M100.693909,30.506222 
	C101.252869,25.435043 104.713699,27.569807 108.129128,26.862085 
	C106.262154,30.742420 103.895576,31.312136 100.693909,30.506222 
z"/>
<path fill="#E86A0F" opacity="1.000000" stroke="none" 
	d="
M26.029194,127.348160 
	C26.385731,126.510895 26.735542,126.060501 27.085352,125.610115 
	C28.008850,128.915771 28.932348,132.221420 29.855846,135.527069 
	C29.199699,135.684708 28.543552,135.842331 27.887403,135.999969 
	C27.265757,133.244995 26.644112,130.490005 26.029194,127.348160 
z"/>
<path fill="#E86A0E" opacity="1.000000" stroke="none" 
	d="
M172.449585,179.535034 
	C172.416412,179.479248 172.482773,179.590820 172.449585,179.535034 
z"/>
<path fill="#E86C0E" opacity="1.000000" stroke="none" 
	d="
M67.996170,208.002991 
	C67.872620,207.861465 67.752861,207.716949 67.633102,207.572433 
	C67.720284,207.620590 67.807465,207.668747 67.950256,207.854767 
	C68.005859,207.992645 67.999969,208.000000 67.996170,208.002991 
z"/>
<path fill="#FAFAFA" opacity="1.000000" stroke="none" 
	d="
M175.874588,107.048119 
	C175.826355,111.051338 175.778122,115.054565 175.632660,119.809616 
	C175.396301,121.707199 175.257156,122.852959 175.118011,123.998718 
	C174.975555,124.716232 174.833099,125.433746 174.474182,126.711960 
	C174.205750,127.847969 174.153809,128.423294 174.101868,128.998611 
	C167.632782,150.682648 154.173492,165.912567 132.563522,173.297348 
	C98.562508,184.916550 60.986992,164.440247 52.055073,129.604752 
	C42.995731,94.272301 65.345413,58.584400 100.689056,51.946129 
	C130.205750,46.402279 157.023636,60.385708 170.847198,89.006393 
	C171.346786,90.058151 171.659485,90.534187 171.972168,91.010223 
	C172.191086,91.830559 172.409988,92.650887 172.788879,94.113205 
	C173.607239,96.846283 174.265625,98.937386 174.923996,101.028488 
	C174.916397,101.472488 174.908798,101.916481 174.949341,103.030426 
	C175.289841,104.816292 175.582214,105.932205 175.874588,107.048119 
M123.816002,156.983200 
	C132.062073,156.028915 140.290298,154.819839 148.562622,154.240616 
	C152.074554,153.994705 153.517578,152.841965 154.135101,149.457504 
	C155.055573,144.412415 156.479401,139.459198 157.687988,134.466644 
	C159.717987,126.080910 155.495743,120.547661 146.757050,121.055115 
	C141.305283,121.371704 135.946609,123.053596 130.501984,123.801132 
	C125.506027,124.487076 120.450859,124.741829 115.064514,125.218147 
	C114.734451,124.389214 114.161331,122.949829 113.856194,122.183487 
	C122.920685,120.872063 131.689606,119.033165 140.538391,118.486145 
	C149.110046,117.956245 157.763809,118.754791 166.381516,118.969872 
	C166.624451,118.322609 166.867386,117.675346 167.110306,117.028076 
	C164.103775,114.893593 161.244003,112.498413 158.048599,110.699402 
	C154.977539,108.970421 152.563705,107.514587 154.606277,103.408447 
	C155.545700,101.519951 155.728134,99.269691 156.420334,97.240273 
	C157.798615,93.199402 155.806946,90.100174 152.812317,88.374535 
	C150.707748,87.161789 147.567276,87.517059 144.899551,87.583115 
	C142.722626,87.637024 140.560776,88.299477 137.506088,88.852554 
	C139.106384,75.162498 148.539673,81.734573 154.876022,80.695763 
	C154.426895,75.934448 153.529205,71.540894 148.132034,70.997765 
	C143.970718,70.579010 139.578934,70.843948 135.487000,71.723335 
	C129.522705,73.005119 123.809258,75.460472 117.842041,76.719696 
	C114.837051,77.353813 111.508621,76.455246 107.704430,76.209579 
	C110.737473,87.397194 118.762421,86.613243 127.586082,85.215668 
	C124.638992,96.906410 115.761551,92.879997 109.044563,93.659821 
	C110.787231,99.132828 116.220398,102.646469 123.068146,102.808243 
	C122.839874,111.329865 118.414467,114.336456 110.782066,110.710747 
	C107.023468,108.925240 103.692421,106.239693 99.730003,103.678360 
	C100.096138,96.663857 100.312912,89.348961 100.921051,82.066765 
	C101.275780,77.819122 100.647644,74.066071 96.678459,72.040771 
	C93.088760,70.209114 85.523453,72.518440 82.711220,76.066429 
	C88.658234,81.384476 88.035164,88.721748 88.215210,95.835953 
	C88.274147,98.164497 88.221313,100.500801 88.106560,102.827988 
	C87.409996,116.954346 86.422791,131.074188 86.154327,145.208008 
	C86.091736,148.503082 88.026535,152.093384 89.841843,155.058319 
	C90.749771,156.541214 93.810127,157.975357 95.252945,157.495422 
	C96.624184,157.039337 97.759064,154.118805 97.947609,152.179749 
	C98.590904,145.563614 98.745865,138.900970 99.138550,132.259094 
	C99.344673,128.772720 99.657715,125.292656 99.838249,122.917747 
	C103.261848,126.073524 106.808998,129.209610 110.170181,132.533737 
	C111.029488,133.383575 111.722832,134.812988 111.766335,136.002670 
	C111.930359,140.488495 112.669456,145.220398 111.541222,149.415909 
	C110.253090,154.206039 113.915382,154.998627 115.938034,157.120773 
	C118.095207,159.384064 120.650002,159.248489 123.816002,156.983200 
M74.894760,109.136536 
	C72.079811,116.344841 69.456352,123.636696 66.363792,130.723862 
	C64.956825,133.948196 66.031784,139.279297 69.519470,141.360245 
	C73.049957,143.466751 74.456894,140.121185 76.400894,138.351608 
	C76.996132,137.809784 77.462837,137.046082 77.784416,136.296478 
	C82.156654,126.105156 86.285858,115.892128 86.119904,104.452805 
	C86.053123,99.849098 83.136841,99.337532 79.895973,99.021378 
	C78.692009,98.903931 77.409424,99.592300 75.765015,100.015564 
	C75.504868,102.714874 75.237106,105.493225 74.894760,109.136536 
z"/>
<path fill="#080809" opacity="1.000000" stroke="none" 
	d="
M175.204926,100.807266 
	C174.265625,98.937386 173.607239,96.846283 172.984039,94.377625 
	C173.841431,96.195389 174.663651,98.390717 175.204926,100.807266 
z"/>
<path fill="#080809" opacity="1.000000" stroke="none" 
	d="
M175.455017,123.932327 
	C175.257156,122.852959 175.396301,121.707199 175.718292,120.263672 
	C175.864777,121.265915 175.828384,122.565926 175.455017,123.932327 
z"/>
<path fill="#080809" opacity="1.000000" stroke="none" 
	d="
M176.155334,106.842308 
	C175.582214,105.932205 175.289841,104.816292 175.052704,103.350784 
	C175.550659,104.212967 175.993378,105.424736 176.155334,106.842308 
z"/>
<path fill="#EB7C0F" opacity="1.000000" stroke="none" 
	d="
M58.985909,156.601913 
	C58.421391,156.380264 57.767868,155.878357 57.176174,155.062973 
	C57.790970,155.273544 58.343937,155.797607 58.985909,156.601913 
z"/>
<path fill="#080809" opacity="1.000000" stroke="none" 
	d="
M172.203125,90.846329 
	C171.659485,90.534187 171.346786,90.058151 171.053314,89.291473 
	C171.526382,89.561363 171.980225,90.121895 172.203125,90.846329 
z"/>
<path fill="#080809" opacity="1.000000" stroke="none" 
	d="
M174.402618,128.953949 
	C174.153809,128.423294 174.205750,127.847969 174.479187,127.078438 
	C174.701584,127.559250 174.702469,128.234283 174.402618,128.953949 
z"/>
<path fill="#21211F" opacity="1.000000" stroke="none" 
	d="
M123.440598,157.116486 
	C120.650002,159.248489 118.095207,159.384064 115.938034,157.120773 
	C113.915382,154.998627 110.253090,154.206039 111.541222,149.415909 
	C112.669456,145.220398 111.930359,140.488495 111.766335,136.002670 
	C111.722832,134.812988 111.029488,133.383575 110.170181,132.533737 
	C106.808998,129.209610 103.261848,126.073524 99.838249,122.917747 
	C99.657715,125.292656 99.344673,128.772720 99.138550,132.259094 
	C98.745865,138.900970 98.590904,145.563614 97.947609,152.179749 
	C97.759064,154.118805 96.624184,157.039337 95.252945,157.495422 
	C93.810127,157.975357 90.749771,156.541214 89.841843,155.058319 
	C88.026535,152.093384 86.091736,148.503082 86.154327,145.208008 
	C86.422791,131.074188 87.409996,116.954346 88.106560,102.827988 
	C88.221313,100.500801 88.274147,98.164497 88.215210,95.835953 
	C88.035164,88.721748 88.658234,81.384476 82.711220,76.066429 
	C85.523453,72.518440 93.088760,70.209114 96.678459,72.040771 
	C100.647644,74.066071 101.275780,77.819122 100.921051,82.066765 
	C100.312912,89.348961 100.096138,96.663857 99.730003,103.678360 
	C103.692421,106.239693 107.023468,108.925240 110.782066,110.710747 
	C118.414467,114.336456 122.839874,111.329865 123.068146,102.808243 
	C116.220398,102.646469 110.787231,99.132828 109.044563,93.659821 
	C115.761551,92.879997 124.638992,96.906410 127.586082,85.215668 
	C118.762421,86.613243 110.737473,87.397194 107.704430,76.209579 
	C111.508621,76.455246 114.837051,77.353813 117.842041,76.719696 
	C123.809258,75.460472 129.522705,73.005119 135.487000,71.723335 
	C139.578934,70.843948 143.970718,70.579010 148.132034,70.997765 
	C153.529205,71.540894 154.426895,75.934448 154.876022,80.695763 
	C148.539673,81.734573 139.106384,75.162498 137.506088,88.852554 
	C140.560776,88.299477 142.722626,87.637024 144.899551,87.583115 
	C147.567276,87.517059 150.707748,87.161789 152.812317,88.374535 
	C155.806946,90.100174 157.798615,93.199402 156.420334,97.240273 
	C155.728134,99.269691 155.545700,101.519951 154.606277,103.408447 
	C152.563705,107.514587 154.977539,108.970421 158.048599,110.699402 
	C161.244003,112.498413 164.103775,114.893593 167.110306,117.028076 
	C166.867386,117.675346 166.624451,118.322609 166.381516,118.969872 
	C157.763809,118.754791 149.110046,117.956245 140.538391,118.486145 
	C131.689606,119.033165 122.920685,120.872063 113.856194,122.183487 
	C114.161331,122.949829 114.734451,124.389214 115.064514,125.218147 
	C120.450859,124.741829 125.506027,124.487076 130.501984,123.801132 
	C135.946609,123.053596 141.305283,121.371704 146.757050,121.055115 
	C155.495743,120.547661 159.717987,126.080910 157.687988,134.466644 
	C156.479401,139.459198 155.055573,144.412415 154.135101,149.457504 
	C153.517578,152.841965 152.074554,153.994705 148.562622,154.240616 
	C140.290298,154.819839 132.062073,156.028915 123.440598,157.116486 
M144.906845,136.153412 
	C145.034592,134.393951 145.162354,132.634491 145.357605,129.945465 
	C138.036499,130.999771 131.372192,131.839508 124.773247,133.038910 
	C123.781090,133.219238 122.390266,135.086166 122.398239,136.163910 
	C122.422462,139.438141 122.445648,142.983871 123.760780,145.826294 
	C124.206718,146.790115 128.501511,146.003052 131.036469,145.958176 
	C132.361938,145.934692 133.686050,145.695892 135.009277,145.708725 
	C140.919052,145.766037 144.850815,143.655701 144.906845,136.153412 
M143.061340,102.510826 
	C143.435852,100.680344 143.810364,98.849854 144.216644,96.864082 
	C135.287170,97.327759 133.444611,99.671127 134.842422,107.966171 
	C138.246750,107.627235 141.961349,107.824135 143.061340,102.510826 
z"/>
<path fill="#21211F" opacity="1.000000" stroke="none" 
	d="
M74.932053,108.704056 
	C75.237106,105.493225 75.504868,102.714874 75.765015,100.015564 
	C77.409424,99.592300 78.692009,98.903931 79.895973,99.021378 
	C83.136841,99.337532 86.053123,99.849098 86.119904,104.452805 
	C86.285858,115.892128 82.156654,126.105156 77.784416,136.296478 
	C77.462837,137.046082 76.996132,137.809784 76.400894,138.351608 
	C74.456894,140.121185 73.049957,143.466751 69.519470,141.360245 
	C66.031784,139.279297 64.956825,133.948196 66.363792,130.723862 
	C69.456352,123.636696 72.079811,116.344841 74.932053,108.704056 
z"/>
<path fill="#F7F7F7" opacity="1.000000" stroke="none" 
	d="
M144.838013,136.583054 
	C144.850815,143.655701 140.919052,145.766037 135.009277,145.708725 
	C133.686050,145.695892 132.361938,145.934692 131.036469,145.958176 
	C128.501511,146.003052 124.206718,146.790115 123.760780,145.826294 
	C122.445648,142.983871 122.422462,139.438141 122.398239,136.163910 
	C122.390266,135.086166 123.781090,133.219238 124.773247,133.038910 
	C131.372192,131.839508 138.036499,130.999771 145.357605,129.945465 
	C145.162354,132.634491 145.034592,134.393951 144.838013,136.583054 
z"/>
<path fill="#F2F2F1" opacity="1.000000" stroke="none" 
	d="
M142.996490,102.896332 
	C141.961349,107.824135 138.246750,107.627235 134.842407,107.966125 
	C133.444611,99.671127 135.287170,97.327759 144.216644,96.864082 
	C143.810364,98.849854 143.435852,100.680344 142.996490,102.896332 
z"/>
</svg>